inDegrees=no
num_controls=7
num_derivatives=13
num_iterations=106
num_multipliers=7
num_parameters=0
num_slacks=7
num_states=26
objective=0.341772
objective_accelerations=0.024366
objective_balance=0.000926
objective_effort=0.018653
objective_height=0.296352
objective_ligament=0.001474
solver_duration=1261.931032
status=Solve_Succeeded
success=true
DataType=double
version=3
OpenSimVersion=4.5
endheader
time	/jointset/ground_pelvis/pelvis_tilt/value	/jointset/ground_pelvis/pelvis_tx/value	/jointset/ground_pelvis/pelvis_ty/value	/jointset/hip_r/hip_flexion_r/value	/jointset/hip_r/hip_adduction_r/value	/jointset/hip_r/hip_rotation_r/value	/jointset/back/lumbar_extension/value	/jointset/patellofemoral_r/patellar_flexion_r/value	/jointset/knee_r/knee_flexion_r/value	/jointset/knee_r/knee_adduction_r/value	/jointset/knee_r/knee_rotation_r/value	/jointset/ankle_r/ankle_angle_r/value	/jointset/subtalar_r/subtalar_angle_r/value	/jointset/ground_pelvis/pelvis_tilt/speed	/jointset/ground_pelvis/pelvis_tx/speed	/jointset/ground_pelvis/pelvis_ty/speed	/jointset/hip_r/hip_flexion_r/speed	/jointset/hip_r/hip_adduction_r/speed	/jointset/hip_r/hip_rotation_r/speed	/jointset/back/lumbar_extension/speed	/jointset/patellofemoral_r/patellar_flexion_r/speed	/jointset/knee_r/knee_flexion_r/speed	/jointset/knee_r/knee_adduction_r/speed	/jointset/knee_r/knee_rotation_r/speed	/jointset/ankle_r/ankle_angle_r/speed	/jointset/subtalar_r/subtalar_angle_r/speed	/forceset/tau_hip_flexion_r	/forceset/tau_hip_adduction_r	/forceset/tau_hip_rotation_r	/forceset/tau_knee_flexion_r	/forceset/tau_ankle_angle_r	/forceset/tau_subtalar_angle_r	/forceset/tau_lumbar_extension	lambda_cid13_p0	lambda_cid14_p0	lambda_cid14_p1	lambda_cid14_p2	lambda_cid14_p3	lambda_cid14_p4	lambda_cid14_p5	/jointset/ground_pelvis/pelvis_tilt/accel	/jointset/ground_pelvis/pelvis_tx/accel	/jointset/ground_pelvis/pelvis_ty/accel	/jointset/hip_r/hip_flexion_r/accel	/jointset/hip_r/hip_adduction_r/accel	/jointset/hip_r/hip_rotation_r/accel	/jointset/back/lumbar_extension/accel	/jointset/patellofemoral_r/patellar_flexion_r/accel	/jointset/knee_r/knee_flexion_r/accel	/jointset/knee_r/knee_adduction_r/accel	/jointset/knee_r/knee_rotation_r/accel	/jointset/ankle_r/ankle_angle_r/accel	/jointset/subtalar_r/subtalar_angle_r/accel	gamma_cid13_p0	gamma_cid14_p0	gamma_cid14_p1	gamma_cid14_p2	gamma_cid14_p3	gamma_cid14_p4	gamma_cid14_p5
1.5	0.009604781665231809	0.08303825621678559	0.869436008912956	0.525712828506108	-0.227595104112676	-0.1490246777610289	-0.5886442020773549	0.7479066104750589	0.7479066104750699	0.006132124908877116	0.1745305171794639	0.2931291480405365	0.1313135560455387	0.1967622721500333	0.147437043631627	0.2889311154185022	-1.258692525574943	-0.0134006389838044	-0.142988282518435	0.8090021898074145	-1.473607927932495	-1.473607927932488	0.4113173464940008	-6.992073126089612e-05	-0.5157687982837537	-0.22036004621217	-0.09630802270986773	0.007688237220175065	0.01876372114200163	-0.2685376660979533	-0.03027776554778502	-0.01079307777432949	0.1704060876381616	-18.87517418999541	-52.89341124805436	-11.37347100100046	-0.7063399295218533	3.279807867509524	-639.8335918365244	58.31392469838875	-0.1160326546961431	0.2313982129280013	-0.3342136036370227	-0.4703411818152908	-0.1968384565504978	-0.5043922676150423	1.145839977562067	-0.8934191903855667	-0.8934191903855655	0.3734525869178602	-0.04822796067814718	-0.4331437284634109	-0.2365623205382673	8.589724973048118e-08	-1.008699626660828e-08	-1.311815129224544e-06	-5.479264713919759e-07	1.614465028452292e-07	-8.529020127262877e-08	-5.476143414438951e-07
1.51	0.01156635102476628	0.08452395377914475	0.8723080182915873	0.5131041965643225	-0.2277384883137865	-0.1504840298650389	-0.580498072260108	0.733127703035212	0.7331277030352202	0.01026008704864598	0.1745300662329726	0.2879506547970626	0.1290993454970605	0.1955305220671779	0.1496770852741313	0.28541303771002	-1.262859654992215	-0.01527864888299584	-0.1488640160789713	0.8201008428249759	-1.481953426847281	-1.481953426847282	0.4142566083058701	-2.389222920142122e-05	-0.5198569708897041	-0.222450677267413	-0.09130054970847003	0.00593856467016268	0.01863830049041074	-0.265932372109359	-0.02795706531989352	-0.01146040986883887	0.1655105569108749	-19.56586396025322	-52.00822027120929	-11.40557078342289	-0.818567540503119	3.154145827121739	-637.1251992924898	58.40514940841204	-0.1299023177156604	0.2165488484832476	-0.3693140130820987	-0.3637701068608966	-0.1840586965007613	-0.6265336470065501	1.073438341287856	-0.7721127483613687	-0.7721127483624721	0.2510818520469641	0.03014955212082806	-0.3856401129667993	-0.1910678972311303	8.690485365366479e-08	-3.529799322494027e-08	-1.610163903608012e-06	-1.200199195478247e-06	2.173951313882177e-07	-1.965362717206233e-07	-4.043692482169154e-07
1.52	0.01351497165694472	0.08603130009964322	0.875143105061408	0.5004591190713286	-0.227900807901867	-0.1520016132540017	-0.5722446438371986	0.7182719411049487	0.7182719411049567	0.01441682558127743	0.174529901830797	0.2827334826102679	0.1268650777581874	0.1941725266789076	0.1517667952594916	0.2815465936564021	-1.265981635816598	-0.01718771637807988	-0.1546345395088527	0.8304619109399259	-1.488978826015515	-1.488978826015523	0.4170726250667586	-1.261186822862886e-05	-0.5235045869478919	-0.2243714842912087	-0.08629307670707109	0.004188892120150617	0.01851287983883308	-0.263327078120764	-0.02563636509200215	-0.0121277419633485	0.1606150261835892	-20.25242052681503	-51.12700556077438	-11.44142213367376	-0.9267060637119569	3.041351931649882	-634.4684503868377	58.45077331728925	-0.1412817157791536	0.2013318814992416	-0.4038868726641542	-0.261311463237496	-0.2030499757290229	-0.4833502414840639	0.9983229970397957	-0.6293992410750736	-0.6293992410750732	0.3488035767217078	-0.0551775888954746	-0.3450324189108662	-0.2025975142488141	8.77952339860045e-08	-4.71540314633064e-08	-1.762051285501876e-06	-1.562064160621946e-06	2.457599584500984e-07	-2.600900948952479e-07	-2.96997135835498e-07
1.53	0.01544935440719302	0.08755875948896469	0.8779378457462288	0.4877880983082796	-0.2280821660186119	-0.1535767172209714	-0.5638914289772896	0.7033524957464129	0.7033524957464161	0.0186006086071656	0.1745297968462879	0.2774820668750203	0.124612745241007	0.1926793580479116	0.1536963638947696	0.2773493830885392	-1.268042158058108	-0.01907510262437771	-0.160386949927141	0.84004526675944	-1.494692248189899	-1.494692248189893	0.4196340620160513	-6.128728675213447e-06	-0.5267047851492622	-0.2260489879421312	-0.08113351948149032	0.002509204973912217	0.01824342497789883	-0.260994690727158	-0.02305074398488839	-0.01277873722371574	0.1556226328664839	-20.93478239919419	-50.17105788205458	-11.46099444716144	-1.032984803480872	2.876170178666982	-631.9867159682632	58.5493677187954	-0.1570271897301302	0.1845104105250253	-0.4355181550697738	-0.1513700899933276	-0.1806983953041628	-0.6213961933729375	0.9179727320212568	-0.5096318745993101	-0.5096318745973054	0.202002294250553	0.02856077231604465	-0.2963623019191567	-0.1438963951962599	8.856106425307254e-08	-4.482042606170895e-08	-1.758323437875537e-06	-1.615370881889167e-06	2.448169964383023e-07	-2.729709053419175e-07	-2.277400656024897e-07
